<?xml version="1.0" standalone="no"?>
<!DOCTYPE svg PUBLIC "-//W3C//DTD SVG 20010904//EN"
 "http://www.w3.org/TR/2001/REC-SVG-20010904/DTD/svg10.dtd">
<svg version="1.0" xmlns="http://www.w3.org/2000/svg"
 width="261.000000pt" height="261.000000pt" viewBox="0 0 261.000000 261.000000"
 preserveAspectRatio="xMidYMid meet">
<metadata>
Created by potrace 1.11, written by Peter Selinger 2001-2013
</metadata>
<g transform="translate(0.000000,261.000000) scale(0.100000,-0.100000)"
fill="#000000" stroke="none">
<path d="M821 2409 c-34 -77 -82 -182 -106 -232 -84 -181 -115 -250 -115 -258
0 -5 132 -9 294 -9 l295 0 -36 78 c-19 42 -54 118 -77 167 -23 50 -73 159
-111 243 -38 83 -72 152 -75 152 -4 0 -34 -63 -69 -141z"/>
<path d="M1170 1788 c-40 -71 -52 -92 -178 -312 -51 -88 -90 -161 -87 -164 2
-2 36 -15 75 -28 238 -80 412 -307 433 -563 5 -64 -14 -198 -37 -261 -40 -109
-121 -220 -210 -289 -58 -45 -161 -98 -206 -107 -16 -4 -28 -9 -26 -13 3 -4
1049 -6 1089 -2 13 2 8 17 -39 117 -70 152 -76 164 -182 399 -55 121 -117 256
-137 300 -21 44 -71 154 -112 245 -41 91 -85 188 -98 215 -13 28 -47 102 -76
165 -28 63 -68 151 -88 195 -21 44 -46 99 -56 123 -10 23 -21 42 -24 42 -3 0
-22 -28 -41 -62z"/>
</g>
</svg>
